<svg width="20" height="21" viewBox="0 0 20 21" fill="none" xmlns="http://www.w3.org/2000/svg">
<path d="M17.1299 2.79L14.2299 5.54C13.1399 4.57 11.6999 3.98 10.1199 3.99C7.50994 4 5.28994 5.65 4.41994 7.95L1.18994 5.43C2.86994 2.22 6.22994 0.0200015 10.0999 1.46875e-06C12.8299 -0.00999853 15.3099 1.05 17.1299 2.79Z" fill="#EA4335"/>
<path d="M3.99 10.13C3.99 10.87 4.12 11.57 4.36 12.22L1.18 14.85C0.42 13.45 0 11.84 0 10.13C0 8.42 0.43 6.8 1.18 5.39L4.4 7.93C4.13 8.61 3.99 9.35 3.99 10.13Z" fill="#FBBC05"/>
<path d="M16.76 17.79C15.01 19.34 12.7 20.26 10.13 20.26C6.25004 20.26 2.87004 18.07 1.17004 14.86L4.35004 12.23C5.21004 14.59 7.47004 16.27 10.12 16.27C11.39 16.27 12.56 15.89 13.54 15.23L16.76 17.79Z" fill="#34A853"/>
<path d="M20 8.49V11.78C19.64 14.19 18.47 16.29 16.76 17.79L13.54 15.23C14.63 14.5 15.48 13.42 15.92 12.16H10.38V8.49H20Z" fill="#4285F4"/>
</svg>
