<svg width="23" height="21" viewBox="0 0 23 21" fill="none" xmlns="http://www.w3.org/2000/svg">
<path d="M11.46 0C5.13 0 0 4.03 0 9C0 12.24 2.18 15.08 5.46 16.66L4.39 20.78C4.35 20.93 4.52 21.05 4.65 20.97L9.5 17.86C10.14 17.95 10.8 17.99 11.47 17.99C17.8 17.99 22.93 13.96 22.93 8.99C22.93 4.02 17.79 0 11.46 0Z" fill="#391B1B"/>
<path d="M6.83998 6.39H3.38998C3.09998 6.39 2.84998 6.63 2.84998 6.93C2.84998 7.22 3.08998 7.47 3.38998 7.47H4.45998V11.4C4.45998 11.76 4.74998 12.05 5.10998 12.05C5.46998 12.05 5.75998 11.76 5.75998 11.4V7.46H6.82998C7.11998 7.46 7.36998 7.22 7.36998 6.92C7.36998 6.63 7.12998 6.39 6.83998 6.39Z" fill="#FAE301"/>
<path d="M14.87 11.03H13.32V6.87C13.32 6.54 13.05 6.28 12.73 6.28C12.41 6.28 12.14 6.55 12.14 6.87V11.48C12.14 11.49 12.14 11.49 12.14 11.49V11.5V11.59C12.14 11.85 12.35 12.07 12.62 12.07H14.88C15.14 12.07 15.36 11.86 15.36 11.59V11.5C15.34 11.25 15.13 11.03 14.87 11.03Z" fill="#FAE301"/>
<path d="M19.92 11.23L18.13 8.95L19.74 7.34C19.95 7.13 19.95 6.79 19.74 6.58C19.53 6.37 19.19 6.37 18.98 6.58L17.23 8.33C17.16 8.35 17.1 8.38 17.04 8.43C17.03 8.44 17.02 8.45 17.01 8.46V6.9C17.01 6.57 16.74 6.31 16.42 6.31C16.09 6.31 15.83 6.58 15.83 6.9V11.45C15.83 11.78 16.1 12.04 16.42 12.04C16.75 12.04 17.01 11.77 17.01 11.45V9.92C17.12 9.9 17.22 9.85 17.3 9.77L17.37 9.7L19.08 11.88C19.26 12.11 19.6 12.15 19.83 11.97C20.06 11.8 20.1 11.46 19.92 11.23Z" fill="#FAE301"/>
<path d="M11.67 11.31L9.94999 6.77C9.93999 6.72 9.91999 6.67 9.89999 6.63C9.82999 6.49 9.71999 6.39 9.58999 6.34C9.46999 6.28 9.33999 6.25 9.18999 6.25C8.97999 6.25 8.77999 6.32 8.63999 6.44C8.53999 6.5 8.44999 6.59 8.40999 6.71L6.63999 11.37C6.53999 11.65 6.67999 11.96 6.94999 12.06C7.22999 12.16 7.53999 12.02 7.63999 11.75L7.96999 10.88C8.02999 10.9 8.07999 10.91 8.14999 10.91H10.17C10.24 10.91 10.3 10.9 10.36 10.87L10.67 11.69C10.77 11.97 11.09 12.11 11.36 12C11.63 11.9 11.77 11.59 11.67 11.31ZM8.36999 9.84L9.16999 7.73L9.96999 9.84H8.36999Z" fill="#FAE301"/>
</svg>
